<?xml version="1.0" standalone="no"?><!DOCTYPE svg PUBLIC "-//W3C//DTD SVG 1.1//EN" "http://www.w3.org/Graphics/SVG/1.1/DTD/svg11.dtd"><svg t="1673357791898" class="icon" viewBox="0 0 1024 1024" version="1.1" xmlns="http://www.w3.org/2000/svg" p-id="4417" xmlns:xlink="http://www.w3.org/1999/xlink" width="32" height="32"><path d="M753.19296 434.70848v-141.02528c0-85.58592-102.17472-155.19744-227.71712-155.19744S297.79968 208.0768 297.79968 293.6832v141.02528c-40.3456 15.85152-68.34176 48.76288-68.34176 87.18336V801.83296c0 53.78048 54.39488 97.3824 121.46688 97.3824h349.12256c67.05152 0 121.46688-43.60192 121.46688-97.3824v-279.94112c-0.02048-38.42048-28.01664-71.33184-68.32128-87.18336z m-227.71712-198.84032c57.58976 0 106.25024 26.48064 106.25024 57.81504v130.82624H419.24608v-130.82624c0-31.3344 48.66048-57.81504 106.22976-57.81504z" p-id="4418" fill="#C8AB6C"></path></svg>