<?xml version="1.0" standalone="no"?>
<!DOCTYPE svg PUBLIC "-//W3C//DTD SVG 1.1//EN" "http://www.w3.org/Graphics/SVG/1.1/DTD/svg11.dtd">
<svg t="1672922492503" class="icon" viewBox="0 0 1024 1024" version="1.1"
    xmlns="http://www.w3.org/2000/svg" p-id="5405" width="200" height="200"
    xmlns:xlink="http://www.w3.org/1999/xlink">
    <path
        d="M0 810.6V896c0 70.6 172 128 384 128s384-57.4 384-128v-85.4C685.4 868.8 534.4 896 384 896S82.6 868.8 0 810.6zM640 256c212 0 384-57.4 384-128S852 0 640 0 256 57.4 256 128s172 128 384 128zM0 600.8V704c0 70.6 172 128 384 128s384-57.4 384-128v-103.2c-82.6 68-233.8 103.2-384 103.2S82.6 668.8 0 600.8z m832 22c114.6-22.2 192-63.4 192-110.8v-85.4c-46.4 32.8-114.6 55.2-192 69v127.2zM384 320C172 320 0 391.6 0 480s172 160 384 160 384-71.6 384-160-172-160-384-160z m438.6 112.6c120-21.6 201.4-64 201.4-112.6v-85.4c-71 50.2-193 77.2-321.4 83.6 59 28.6 102.4 67 120 114.4z"
        p-id="5406" fill="#C8AA6E"></path>
</svg>